<?xml version="1.0" encoding="UTF-8" standalone="no"?>
<!-- Created with Inkscape (http://www.inkscape.org/) -->

<svg
   xmlns:dc="http://purl.org/dc/elements/1.1/"
   xmlns:cc="http://creativecommons.org/ns#"
   xmlns:rdf="http://www.w3.org/1999/02/22-rdf-syntax-ns#"
   xmlns:svg="http://www.w3.org/2000/svg"
   xmlns="http://www.w3.org/2000/svg"
   xmlns:sodipodi="http://sodipodi.sourceforge.net/DTD/sodipodi-0.dtd"
   xmlns:inkscape="http://www.inkscape.org/namespaces/inkscape"
   width="210mm"
   height="297mm"
   id="svg5080"
   version="1.1"
   inkscape:version="0.48.4 r9939"
   sodipodi:docname="electric-outlet-box.svg">
  <defs
     id="defs3" />
  <sodipodi:namedview
     inkscape:document-units="mm"
     id="base"
     pagecolor="#ffffff"
     bordercolor="#666666"
     borderopacity="1.0"
     inkscape:pageopacity="0.0"
     inkscape:pageshadow="2"
     inkscape:zoom="1.2404454"
     inkscape:cx="474.58096"
     inkscape:cy="550.78224"
     inkscape:current-layer="layer1"
     showgrid="true"
     units="mm"
     inkscape:window-width="1506"
     inkscape:window-height="1031"
     inkscape:window-x="2607"
     inkscape:window-y="254"
     inkscape:window-maximized="0">
    <inkscape:grid
       type="xygrid"
       id="grid5155"
       empspacing="5"
       visible="true"
       enabled="true"
       snapvisiblegridlinesonly="true"
       units="mm"
       spacingx="5mm"
       spacingy="5mm" />
  </sodipodi:namedview>
  <metadata
     id="metadata4">
    <rdf:RDF>
      <cc:Work
         rdf:about="">
        <dc:format>image/svg+xml</dc:format>
        <dc:type
           rdf:resource="http://purl.org/dc/dcmitype/StillImage" />
        <dc:title />
      </cc:Work>
    </rdf:RDF>
  </metadata>
  <g
     inkscape:label="Layer 1"
     inkscape:groupmode="layer"
     id="layer1">
    <path
       sodipodi:nodetypes="ccccccccccccccccccccccccccccccccccccccccccccc"
       inkscape:connector-curvature="0"
       id="rect3119"
       d="m 138.00224,202.93987 0,53.15625 7.08642,0 0,34.375 -7.08642,0 0,107.375 7.08642,0 0,34.375 -7.08642,0 0,107.34375 7.08642,0 0,34.375 -7.08642,0 0,53.15625 53.125,0 0,-7.08644 34.375,0 0,7.08644 71.9375,0 0,-7.08644 34.375,0 0,7.08644 53.15625,0 0,-53.15625 -7.08706,0 0,-34.375 7.08706,0 0,-107.34375 -7.08706,0 0,-34.375 7.08706,0 0,-107.375 -7.08706,0 0,-34.375 7.08706,0 0,-53.15625 -53.15625,0 0,7.08792 -34.375,0 0,-7.08792 -71.9375,0 0,7.08792 -34.375,0 0,-7.08792 z"
       style="fill:none;stroke:#000000;stroke-width:1.0629921;stroke-miterlimit:4;stroke-dasharray:none" />
    <rect
       style="fill:none;stroke:#000000;stroke-width:1.0629921;stroke-miterlimit:4;stroke-dasharray:none"
       id="rect3767"
       width="35.441582"
       height="35.438034"
       x="243.76582"
       y="295.41229" />
    <path
       sodipodi:type="arc"
       style="fill:none;stroke:#000000;stroke-width:1.96836615;stroke-miterlimit:4;stroke-dasharray:none"
       id="path3805-8"
       sodipodi:cx="-292.32285"
       sodipodi:cy="-37.204746"
       sodipodi:rx="8.8582678"
       sodipodi:ry="8.8582678"
       d="m -283.46458,-37.204746 a 8.8582678,8.8582678 0 1 1 -17.71653,0 8.8582678,8.8582678 0 1 1 17.71653,0 z"
       transform="matrix(0.53999999,0,0,0.54007565,454.75605,331.47198)" />
    <path
       style="fill:none;stroke:#000000;stroke-width:1.0629921;stroke-miterlimit:4"
       d="m 145.09599,627.3723 0,69.78125 232.78124,0 0,-69.78125 -46.0625,0 0,-7.64237 -34.375,0 0,7.64237 -71.9375,0 0,-7.61112 -34.375,0 0,7.61112 z"
       id="rect4476-7-15-2-7-6-4"
       inkscape:connector-curvature="0"
       sodipodi:nodetypes="ccccccccccccc" />
    <path
       style="fill:none;stroke:#000000;stroke-width:1.0629921;stroke-miterlimit:4;stroke-dasharray:none"
       d="m 385.18619,202.93101 0,53.15737 -7.625,0 0,34.37572 7.625,0 0,107.37725 -7.63091,0 0,34.37571 7.63091,0 0,107.346 -7.63091,0 0,34.37572 7.63091,0 0,53.12611 69.78125,0 0,-424.13388 z"
       id="rect3119-7"
       inkscape:connector-curvature="0"
       sodipodi:nodetypes="ccccccccccccccccc" />
    <path
       style="fill:none;stroke:#000000;stroke-width:1.0629921;stroke-miterlimit:4;stroke-dasharray:none"
       d="m 137.57187,202.93101 0,53.15737 7.625,0 0,34.37572 -7.625,0 0,107.37724 7.63091,0 0,34.37571 -7.63091,0 0,107.346 7.63091,0 0,34.37572 -7.63091,0 0,53.12611 -69.78125,0 0,-424.13387 z"
       id="rect3119-7-6"
       inkscape:connector-curvature="0"
       sodipodi:nodetypes="ccccccccccccccccc" />
    <path
       style="fill:none;stroke:#000000;stroke-width:1.0629921;stroke-miterlimit:4"
       d="m 145.09599,202.53954 0,-69.78124 232.78124,0 0,69.78124 -46.0625,0 0,7.64237 -34.375,0 0,-7.64237 -71.9375,0 0,7.61112 -34.375,0 0,-7.61112 z"
       id="rect4476-7-15-2-7-6-4-8"
       inkscape:connector-curvature="0"
       sodipodi:nodetypes="ccccccccccccc" />
    <g
       transform="translate(14.109518,52.803174)"
       id="g5070">
      <rect
         y="150.12784"
         x="440.85764"
         height="424.13373"
         width="246.96826"
         id="rect3119-1"
         style="fill:none;stroke:#000000;stroke-width:1.0629921;stroke-miterlimit:4;stroke-dasharray:none" />
      <path
         transform="matrix(0.93999999,0,0,0.93999999,-10.20548,-681.34167)"
         d="m 620.07873,954.92126 c 0,4.89229 -3.96598,8.85827 -8.85827,8.85827 -4.89229,0 -8.85827,-3.96598 -8.85827,-8.85827 0,-4.89228 3.96598,-8.85826 8.85827,-8.85826 4.89229,0 8.85827,3.96598 8.85827,8.85826 z"
         sodipodi:ry="8.8582678"
         sodipodi:rx="8.8582678"
         sodipodi:cy="954.92126"
         sodipodi:cx="611.22046"
         id="path3013"
         style="fill:none;stroke:#000000;stroke-width:1.13084269;stroke-miterlimit:4;stroke-dasharray:none"
         sodipodi:type="arc" />
      <path
         transform="matrix(0.93999999,0,0,0.93999999,-10.20548,-385.47553)"
         d="m 620.07873,954.92126 c 0,4.89229 -3.96598,8.85827 -8.85827,8.85827 -4.89229,0 -8.85827,-3.96598 -8.85827,-8.85827 0,-4.89228 3.96598,-8.85826 8.85827,-8.85826 4.89229,0 8.85827,3.96598 8.85827,8.85826 z"
         sodipodi:ry="8.8582678"
         sodipodi:rx="8.8582678"
         sodipodi:cy="954.92126"
         sodipodi:cx="611.22046"
         id="path3013-1"
         style="fill:none;stroke:#000000;stroke-width:1.13084269;stroke-miterlimit:4;stroke-dasharray:none"
         sodipodi:type="arc" />
      <rect
         y="242.25375"
         x="483.3772"
         height="239.8819"
         width="161.92912"
         id="rect3337-0-7"
         style="fill:none;stroke:#000000;stroke-width:1.0629921;stroke-miterlimit:4;stroke-dasharray:none" />
    </g>
    <g
       id="g5076"
       transform="translate(54.823804,-403.37285)">
      <path
         sodipodi:nodetypes="ccccccccccccc"
         inkscape:connector-curvature="0"
         id="rect4476-7-15-2-7-6-4-3"
         d="m 527.91063,931.32614 69.78125,0 0,-232.78126 -69.78125,0 0,46.0625 -7.64237,0 0,34.375 7.64237,0 0,71.93751 -7.61112,0 0,34.375 7.61112,0 z"
         style="fill:none;stroke:#000000;stroke-width:1.0629921;stroke-miterlimit:4" />
      <path
         sodipodi:nodetypes="ccccccccccccc"
         inkscape:connector-curvature="0"
         id="rect4476-7-15-2-7-6-4-3-1"
         d="m 512.62538,931.32615 -69.78125,0 0,-232.78127 69.78125,0 0,46.0625 7.64237,0 0,34.375 -7.64237,0 0,71.93752 7.61112,0 0,34.375 -7.61112,0 z"
         style="fill:none;stroke:#000000;stroke-width:1.0629921;stroke-miterlimit:4" />
    </g>
    <g
       transform="matrix(0,1,-1.6901409,0,2336.2736,176.95073)"
       id="g3052">
      <rect
         y="882.94513"
         x="177.16536"
         height="49.31496"
         width="121.24409"
         id="rect3108"
         style="fill:none;stroke:#000000;stroke-width:0.76919866px;stroke-linecap:butt;stroke-linejoin:miter;stroke-opacity:1" />
      <text
         transform="scale(1.1267231,0.88752951)"
         sodipodi:linespacing="125%"
         id="text3184-5-17"
         y="1026.0277"
         x="177.30817"
         style="font-size:14.83170414px;font-style:normal;font-weight:normal;line-height:125%;letter-spacing:0px;word-spacing:0px;fill:#000000;fill-opacity:1;stroke:none;font-family:Sans"
         xml:space="preserve"><tspan
           y="1026.0277"
           x="177.30817"
           id="tspan3186-7-4"
           sodipodi:role="line">GMS0205</tspan></text>
    </g>
    <g
       id="g3176-2-48"
       transform="matrix(0.98415198,0,0,0.98916567,676.59762,23.82294)">
      <rect
         y="343.23434"
         x="178.09779"
         height="111.96851"
         width="65.90551"
         id="rect3168-3-8"
         style="fill:none;stroke:#000000;stroke-width:1.07736897;stroke-miterlimit:4;stroke-dasharray:none" />
      <text
         transform="matrix(0,1,-1,0,0,0)"
         sodipodi:linespacing="125%"
         id="text3170-2-2"
         y="-212.59842"
         x="361.4173"
         style="font-size:16px;font-style:normal;font-weight:normal;line-height:125%;letter-spacing:0px;word-spacing:0px;fill:#000000;fill-opacity:1;stroke:none;font-family:Sans"
         xml:space="preserve"><tspan
           y="-212.59842"
           x="361.4173"
           id="tspan3172-2-4"
           sodipodi:role="line">ProBee</tspan><tspan
           id="tspan3174-1-5"
           y="-192.59842"
           x="361.4173"
           sodipodi:role="line">ZE20SSC</tspan></text>
    </g>
    <rect
       style="fill:none;stroke:#000000;stroke-width:1.27336276;stroke-miterlimit:4;stroke-dasharray:none"
       id="rect3337-0-2-7-4"
       width="175.892"
       height="345.9707"
       x="751.22595"
       y="245.10393" />
    <path
       sodipodi:type="arc"
       style="fill:none;stroke:#000000;stroke-width:1.13144624;stroke-miterlimit:4;stroke-dasharray:none"
       id="path3013-4-4-1-2"
       sodipodi:cx="611.22046"
       sodipodi:cy="954.92126"
       sodipodi:rx="8.8582678"
       sodipodi:ry="8.8582678"
       d="m 620.07873,954.92126 a 8.8582678,8.8582678 0 1 1 -17.71654,0 8.8582678,8.8582678 0 1 1 17.71654,0 z"
       transform="matrix(0.938727,0,0,0.94027071,265.40282,-629.23355)" />
    <path
       sodipodi:type="arc"
       style="fill:none;stroke:#000000;stroke-width:1.13144624;stroke-miterlimit:4;stroke-dasharray:none"
       id="path3013-1-8-5-7-3"
       sodipodi:cx="611.22046"
       sodipodi:cy="954.92126"
       sodipodi:rx="8.8582678"
       sodipodi:ry="8.8582678"
       d="m 620.07873,954.92126 a 8.8582678,8.8582678 0 1 1 -17.71654,0 8.8582678,8.8582678 0 1 1 17.71654,0 z"
       transform="matrix(0.938727,0,0,0.94027071,265.40282,-333.2822)" />
    <rect
       style="fill:none;stroke:#000000;stroke-width:1.0629921;stroke-miterlimit:4;stroke-dasharray:none"
       id="rect3119-2"
       width="246.96826"
       height="424.13373"
       x="715.27332"
       y="202.93102" />
    <rect
       style="fill:none;stroke:#000000;stroke-width:1.0629921;stroke-miterlimit:4;stroke-dasharray:none"
       id="rect3767-1"
       width="35.441582"
       height="35.438034"
       x="821.57092"
       y="307.16422" />
    <rect
       style="fill:none;stroke:#000000;stroke-width:1.0629921;stroke-miterlimit:4;stroke-dasharray:none"
       id="rect3767-5-7"
       width="35.441582"
       height="35.438034"
       x="821.57092"
       y="493.54202" />
    <path
       sodipodi:type="arc"
       style="fill:none;stroke:#000000;stroke-width:1.96812975;stroke-miterlimit:4;stroke-dasharray:none"
       id="path3805-4"
       sodipodi:cx="-292.32285"
       sodipodi:cy="-37.204746"
       sodipodi:rx="8.8582678"
       sodipodi:ry="8.8582678"
       d="m -283.46458,-37.204746 a 8.8582678,8.8582678 0 1 1 -17.71653,0 8.8582678,8.8582678 0 1 1 17.71653,0 z"
       transform="matrix(0.54012971,0,0,0.54007565,1032.0077,344.97666)" />
    <path
       sodipodi:type="arc"
       style="fill:none;stroke:#000000;stroke-width:1.96812975;stroke-miterlimit:4;stroke-dasharray:none"
       id="path3805-8-0"
       sodipodi:cx="-292.32285"
       sodipodi:cy="-37.204746"
       sodipodi:rx="8.8582678"
       sodipodi:ry="8.8582678"
       d="m -283.46458,-37.204746 a 8.8582678,8.8582678 0 1 1 -17.71653,0 8.8582678,8.8582678 0 1 1 17.71653,0 z"
       transform="matrix(0.54012971,0,0,0.54007565,1032.0077,531.35436)" />
    <g
       id="g3063"
       transform="matrix(0,1,-1,0,920.30643,395.75056)">
      <rect
         y="120.3494"
         x="88.58268"
         height="32.952755"
         width="84.330704"
         id="rect3047"
         style="fill:none;stroke:#000000;stroke-width:0.70866138;stroke-miterlimit:4;stroke-opacity:1;stroke-dasharray:none" />
      <text
         sodipodi:linespacing="125%"
         id="text3059"
         y="142.54759"
         x="94.600975"
         style="font-size:14px;font-style:normal;font-weight:normal;line-height:125%;letter-spacing:0px;word-spacing:0px;fill:#000000;fill-opacity:1;stroke:none;font-family:Sans"
         xml:space="preserve"><tspan
           y="142.54759"
           x="94.600975"
           id="tspan3061"
           sodipodi:role="line">Fuse Holder</tspan></text>
    </g>
    <g
       transform="translate(-124.01575,921.25985)"
       id="g3132">
      <g
         id="g3122">
        <g
           id="g3416"
           transform="matrix(1.0457646,0,0,0.99999347,214.25706,118.2236)">
          <rect
             y="78.269684"
             x="141.73228"
             height="161.92912"
             width="154.84251"
             id="rect3400"
             style="fill:none;stroke:#000000;stroke-width:1.03947604;stroke-miterlimit:4;stroke-dasharray:none" />
          <text
             sodipodi:linespacing="125%"
             id="text3402"
             y="117.97108"
             x="157.5838"
             style="font-size:16px;font-style:normal;font-weight:normal;line-height:125%;letter-spacing:0px;word-spacing:0px;fill:#000000;fill-opacity:1;stroke:none;font-family:Sans"
             xml:space="preserve"><tspan
               y="117.97108"
               x="157.5838"
               id="tspan3404"
               sodipodi:role="line">Relay</tspan><tspan
               id="tspan3406"
               y="137.97107"
               x="157.5838"
               sodipodi:role="line">2Ch</tspan></text>
        </g>
        <rect
           style="fill:none;stroke:#000000;stroke-width:1.27336276;stroke-miterlimit:4;stroke-dasharray:none"
           id="rect3337-0-2-7-4-5"
           width="175.892"
           height="345.9707"
           x="355.49405"
           y="104.47146" />
        <path
           sodipodi:type="arc"
           style="fill:none;stroke:#000000;stroke-width:1.13144624;stroke-miterlimit:4;stroke-dasharray:none"
           id="path3013-4-4-1-2-5"
           sodipodi:cx="611.22046"
           sodipodi:cy="954.92126"
           sodipodi:rx="8.8582678"
           sodipodi:ry="8.8582678"
           d="m 620.07873,954.92126 c 0,4.89229 -3.96598,8.85827 -8.85827,8.85827 -4.89229,0 -8.85827,-3.96598 -8.85827,-8.85827 0,-4.89228 3.96598,-8.85826 8.85827,-8.85826 4.89229,0 8.85827,3.96598 8.85827,8.85826 z"
           transform="matrix(0.938727,0,0,0.94027071,-130.32907,-769.86605)" />
        <path
           sodipodi:type="arc"
           style="fill:none;stroke:#000000;stroke-width:1.13144624;stroke-miterlimit:4;stroke-dasharray:none"
           id="path3013-1-8-5-7-3-1"
           sodipodi:cx="611.22046"
           sodipodi:cy="954.92126"
           sodipodi:rx="8.8582678"
           sodipodi:ry="8.8582678"
           d="m 620.07873,954.92126 c 0,4.89229 -3.96598,8.85827 -8.85827,8.85827 -4.89229,0 -8.85827,-3.96598 -8.85827,-8.85827 0,-4.89228 3.96598,-8.85826 8.85827,-8.85826 4.89229,0 8.85827,3.96598 8.85827,8.85826 z"
           transform="matrix(0.938727,0,0,0.94027071,-130.32907,-473.9147)" />
      </g>
      <rect
         y="60.767826"
         x="319.42914"
         height="424.13373"
         width="246.96826"
         id="rect3119-2-8"
         style="fill:none;stroke:#000000;stroke-width:1.0629921;stroke-miterlimit:4;stroke-dasharray:none" />
    </g>
    <path
       sodipodi:type="arc"
       style="fill:none;stroke:#000000;stroke-width:0.80326855;stroke-miterlimit:4;stroke-dasharray:none"
       id="path3069"
       sodipodi:cx="283.46457"
       sodipodi:cy="538.58264"
       sodipodi:rx="53.149605"
       sodipodi:ry="53.149605"
       d="m 336.61417,538.58264 a 53.149605,53.149605 0 1 1 -106.29921,0 53.149605,53.149605 0 1 1 106.29921,0 z"
       transform="matrix(1.3233334,0,0,1.3233334,-113.63152,-239.52148)" />
    <g
       id="g3077"
       transform="translate(403.70691,102.29921)">
      <rect
         y="254.24785"
         x="-168.61794"
         height="24.80315"
         width="52.795277"
         id="rect3071"
         style="fill:none;stroke:#000000;stroke-width:1.0629921;stroke-miterlimit:4;stroke-dasharray:none" />
      <text
         sodipodi:linespacing="125%"
         id="text3073"
         y="272.83463"
         x="-159.44882"
         style="font-size:14px;font-style:normal;font-weight:normal;line-height:125%;letter-spacing:0px;word-spacing:0px;fill:#000000;fill-opacity:1;stroke:none;font-family:Sans"
         xml:space="preserve"><tspan
           y="272.83463"
           x="-159.44882"
           id="tspan3075"
           sodipodi:role="line">USB</tspan></text>
    </g>
    <path
       sodipodi:type="arc"
       style="fill:#cccccc;stroke:#000000;stroke-width:1.13144624000000000;stroke-miterlimit:4;stroke-dasharray:none"
       id="path3013-4-4-1-2-9"
       sodipodi:cx="611.22046"
       sodipodi:cy="954.92126"
       sodipodi:rx="8.8582678"
       sodipodi:ry="8.8582678"
       d="m 620.07873,954.92126 a 8.8582678,8.8582678 0 1 1 -17.71654,0 8.8582678,8.8582678 0 1 1 17.71654,0 z"
       transform="matrix(0.938727,0,0,0.94027071,-312.28253,-629.23355)" />
    <path
       sodipodi:type="arc"
       style="fill:#cccccc;stroke:#000000;stroke-width:1.13144624000000000;stroke-miterlimit:4;stroke-dasharray:none"
       id="path3013-1-8-5-7-3-4"
       sodipodi:cx="611.22046"
       sodipodi:cy="954.92126"
       sodipodi:rx="8.8582678"
       sodipodi:ry="8.8582678"
       d="m 620.07873,954.92126 a 8.8582678,8.8582678 0 1 1 -17.71654,0 8.8582678,8.8582678 0 1 1 17.71654,0 z"
       transform="matrix(0.938727,0,0,0.94027071,-312.28253,-333.2822)" />
  </g>
</svg>
