<?xml version="1.0" encoding="UTF-8" standalone="no"?>
<!-- Created with Inkscape (http://www.inkscape.org/) -->

<svg
   xmlns:dc="http://purl.org/dc/elements/1.1/"
   xmlns:cc="http://creativecommons.org/ns#"
   xmlns:rdf="http://www.w3.org/1999/02/22-rdf-syntax-ns#"
   xmlns:svg="http://www.w3.org/2000/svg"
   xmlns="http://www.w3.org/2000/svg"
   xmlns:sodipodi="http://sodipodi.sourceforge.net/DTD/sodipodi-0.dtd"
   xmlns:inkscape="http://www.inkscape.org/namespaces/inkscape"
   width="210mm"
   height="297mm"
   id="svg5080"
   version="1.1"
   inkscape:version="0.48.4 r9939"
   sodipodi:docname="light-thermo-box.svg">
  <defs
     id="defs3" />
  <sodipodi:namedview
     inkscape:document-units="mm"
     id="base"
     pagecolor="#ffffff"
     bordercolor="#666666"
     borderopacity="1.0"
     inkscape:pageopacity="0.0"
     inkscape:pageshadow="2"
     inkscape:zoom="0.98994949"
     inkscape:cx="301.67703"
     inkscape:cy="538.39848"
     inkscape:current-layer="layer1"
     showgrid="true"
     units="mm"
     inkscape:window-width="2560"
     inkscape:window-height="1378"
     inkscape:window-x="1912"
     inkscape:window-y="-8"
     inkscape:window-maximized="1">
    <inkscape:grid
       type="xygrid"
       id="grid5155"
       empspacing="5"
       visible="true"
       enabled="true"
       snapvisiblegridlinesonly="true"
       units="mm"
       spacingx="5mm"
       spacingy="5mm" />
  </sodipodi:namedview>
  <metadata
     id="metadata4">
    <rdf:RDF>
      <cc:Work
         rdf:about="">
        <dc:format>image/svg+xml</dc:format>
        <dc:type
           rdf:resource="http://purl.org/dc/dcmitype/StillImage" />
        <dc:title />
      </cc:Work>
    </rdf:RDF>
  </metadata>
  <g
     inkscape:label="Layer 1"
     inkscape:groupmode="layer"
     id="layer1">
    <path
       sodipodi:nodetypes="ccccccccccccccccccccccccccccccccccccccccccccc"
       inkscape:connector-curvature="0"
       id="rect3119"
       d="m 138.00224,202.93987 0,53.15625 7.08642,0 0,34.375 -7.08642,0 0,107.375 7.08642,0 0,34.375 -7.08642,0 0,107.34375 7.08642,0 0,34.375 -7.08642,0 0,53.15625 53.125,0 0,-7.08644 34.375,0 0,7.08644 71.9375,0 0,-7.08644 34.375,0 0,7.08644 53.15625,0 0,-53.15625 -7.08706,0 0,-34.375 7.08706,0 0,-107.34375 -7.08706,0 0,-34.375 7.08706,0 0,-107.375 -7.08706,0 0,-34.375 7.08706,0 0,-53.15625 -53.15625,0 0,7.08792 -34.375,0 0,-7.08792 -71.9375,0 0,7.08792 -34.375,0 0,-7.08792 z"
       style="fill:none;stroke:#000000;stroke-width:1.0629921;stroke-miterlimit:4;stroke-dasharray:none" />
    <rect
       style="fill:none;stroke:#000000;stroke-width:1.0629921;stroke-miterlimit:4;stroke-dasharray:none"
       id="rect3767"
       width="35.441582"
       height="35.438034"
       x="244.289"
       y="307.18872" />
    <rect
       style="fill:none;stroke:#000000;stroke-width:1.0629921;stroke-miterlimit:4;stroke-dasharray:none"
       id="rect3767-5"
       width="35.441582"
       height="35.438034"
       x="244.289"
       y="493.56641" />
    <path
       sodipodi:type="arc"
       style="fill:none;stroke:#000000;stroke-width:1.96812975;stroke-miterlimit:4;stroke-dasharray:none"
       id="path3805"
       sodipodi:cx="-292.32285"
       sodipodi:cy="-37.204746"
       sodipodi:rx="8.8582678"
       sodipodi:ry="8.8582678"
       d="m -283.46458,-37.204746 a 8.8582678,8.8582678 0 1 1 -17.71653,0 8.8582678,8.8582678 0 1 1 17.71653,0 z"
       transform="matrix(0.54012971,0,0,0.54007565,454.72577,345.00111)" />
    <path
       sodipodi:type="arc"
       style="fill:none;stroke:#000000;stroke-width:1.96812975;stroke-miterlimit:4;stroke-dasharray:none"
       id="path3805-8"
       sodipodi:cx="-292.32285"
       sodipodi:cy="-37.204746"
       sodipodi:rx="8.8582678"
       sodipodi:ry="8.8582678"
       d="m -283.46458,-37.204746 a 8.8582678,8.8582678 0 1 1 -17.71653,0 8.8582678,8.8582678 0 1 1 17.71653,0 z"
       transform="matrix(0.54012971,0,0,0.54007565,454.72577,531.3788)" />
    <path
       style="fill:none;stroke:#000000;stroke-width:1.0629921;stroke-miterlimit:4"
       d="m 145.09599,627.3723 0,69.78125 232.78124,0 0,-69.78125 -46.0625,0 0,-7.64237 -34.375,0 0,7.64237 -71.9375,0 0,-7.61112 -34.375,0 0,7.61112 z"
       id="rect4476-7-15-2-7-6-4"
       inkscape:connector-curvature="0"
       sodipodi:nodetypes="ccccccccccccc" />
    <path
       style="fill:none;stroke:#000000;stroke-width:1.0629921;stroke-miterlimit:4;stroke-dasharray:none"
       d="m 385.18619,202.93101 0,53.15737 -7.625,0 0,34.37572 7.625,0 0,107.37725 -7.63091,0 0,34.37571 7.63091,0 0,107.346 -7.63091,0 0,34.37572 7.63091,0 0,53.12611 69.78125,0 0,-424.13388 z"
       id="rect3119-7"
       inkscape:connector-curvature="0"
       sodipodi:nodetypes="ccccccccccccccccc" />
    <path
       style="fill:none;stroke:#000000;stroke-width:1.0629921;stroke-miterlimit:4;stroke-dasharray:none"
       d="m 137.57187,202.93101 0,53.15737 7.625,0 0,34.37572 -7.625,0 0,107.37724 7.63091,0 0,34.37571 -7.63091,0 0,107.346 7.63091,0 0,34.37572 -7.63091,0 0,53.12611 -69.78125,0 0,-424.13387 z"
       id="rect3119-7-6"
       inkscape:connector-curvature="0"
       sodipodi:nodetypes="ccccccccccccccccc" />
    <path
       style="fill:none;stroke:#000000;stroke-width:1.0629921;stroke-miterlimit:4"
       d="m 145.09599,202.53954 0,-69.78124 232.78124,0 0,69.78124 -46.0625,0 0,7.64237 -34.375,0 0,-7.64237 -71.9375,0 0,7.61112 -34.375,0 0,-7.61112 z"
       id="rect4476-7-15-2-7-6-4-8"
       inkscape:connector-curvature="0"
       sodipodi:nodetypes="ccccccccccccc" />
    <g
       transform="translate(14.109518,52.803174)"
       id="g5070">
      <rect
         y="150.12784"
         x="440.85764"
         height="424.13373"
         width="246.96826"
         id="rect3119-1"
         style="fill:none;stroke:#000000;stroke-width:1.0629921;stroke-miterlimit:4;stroke-dasharray:none" />
      <path
         transform="matrix(0.93999999,0,0,0.93999999,-10.20548,-681.34167)"
         d="m 620.07873,954.92126 c 0,4.89229 -3.96598,8.85827 -8.85827,8.85827 -4.89229,0 -8.85827,-3.96598 -8.85827,-8.85827 0,-4.89228 3.96598,-8.85826 8.85827,-8.85826 4.89229,0 8.85827,3.96598 8.85827,8.85826 z"
         sodipodi:ry="8.8582678"
         sodipodi:rx="8.8582678"
         sodipodi:cy="954.92126"
         sodipodi:cx="611.22046"
         id="path3013"
         style="fill:none;stroke:#000000;stroke-width:1.13084269;stroke-miterlimit:4;stroke-dasharray:none"
         sodipodi:type="arc" />
      <path
         transform="matrix(0.93999999,0,0,0.93999999,-10.20548,-385.47553)"
         d="m 620.07873,954.92126 c 0,4.89229 -3.96598,8.85827 -8.85827,8.85827 -4.89229,0 -8.85827,-3.96598 -8.85827,-8.85827 0,-4.89228 3.96598,-8.85826 8.85827,-8.85826 4.89229,0 8.85827,3.96598 8.85827,8.85826 z"
         sodipodi:ry="8.8582678"
         sodipodi:rx="8.8582678"
         sodipodi:cy="954.92126"
         sodipodi:cx="611.22046"
         id="path3013-1"
         style="fill:none;stroke:#000000;stroke-width:1.13084269;stroke-miterlimit:4;stroke-dasharray:none"
         sodipodi:type="arc" />
      <rect
         y="242.25375"
         x="483.3772"
         height="239.8819"
         width="161.92912"
         id="rect3337-0-7"
         style="fill:none;stroke:#000000;stroke-width:1.0629921;stroke-miterlimit:4;stroke-dasharray:none" />
    </g>
    <g
       id="g5076"
       transform="translate(54.823804,-403.37285)">
      <path
         sodipodi:nodetypes="ccccccccccccc"
         inkscape:connector-curvature="0"
         id="rect4476-7-15-2-7-6-4-3"
         d="m 527.91063,931.32614 69.78125,0 0,-232.78126 -69.78125,0 0,46.0625 -7.64237,0 0,34.375 7.64237,0 0,71.93751 -7.61112,0 0,34.375 7.61112,0 z"
         style="fill:none;stroke:#000000;stroke-width:1.0629921;stroke-miterlimit:4" />
      <path
         sodipodi:nodetypes="ccccccccccccc"
         inkscape:connector-curvature="0"
         id="rect4476-7-15-2-7-6-4-3-1"
         d="m 512.62538,931.32615 -69.78125,0 0,-232.78127 69.78125,0 0,46.0625 7.64237,0 0,34.375 -7.64237,0 0,71.93752 7.61112,0 0,34.375 -7.61112,0 z"
         style="fill:none;stroke:#000000;stroke-width:1.0629921;stroke-miterlimit:4" />
    </g>
  </g>
</svg>
