<?xml version="1.0" encoding="UTF-8" standalone="no"?>
<!-- Created with Inkscape (http://www.inkscape.org/) -->

<svg
   xmlns:dc="http://purl.org/dc/elements/1.1/"
   xmlns:cc="http://creativecommons.org/ns#"
   xmlns:rdf="http://www.w3.org/1999/02/22-rdf-syntax-ns#"
   xmlns:svg="http://www.w3.org/2000/svg"
   xmlns="http://www.w3.org/2000/svg"
   xmlns:sodipodi="http://sodipodi.sourceforge.net/DTD/sodipodi-0.dtd"
   xmlns:inkscape="http://www.inkscape.org/namespaces/inkscape"
   width="744.09448"
   height="1052.3622"
   id="svg4451"
   version="1.1"
   inkscape:version="0.48.5 r10040"
   sodipodi:docname="light-thermo-box.svg">
  <defs
     id="defs3" />
  <sodipodi:namedview
     inkscape:document-units="mm"
     id="base"
     pagecolor="#ffffff"
     bordercolor="#666666"
     borderopacity="1.0"
     inkscape:pageopacity="0.0"
     inkscape:pageshadow="2"
     inkscape:zoom="0.9899495"
     inkscape:cx="462.47331"
     inkscape:cy="568.21079"
     inkscape:current-layer="layer1"
     showgrid="true"
     units="mm"
     inkscape:window-width="2560"
     inkscape:window-height="1378"
     inkscape:window-x="1912"
     inkscape:window-y="-8"
     inkscape:window-maximized="1">
    <inkscape:grid
       type="xygrid"
       id="grid4474"
       empspacing="5"
       visible="true"
       enabled="true"
       snapvisiblegridlinesonly="true"
       units="mm"
       spacingx="5mm"
       spacingy="5mm" />
  </sodipodi:namedview>
  <metadata
     id="metadata4">
    <rdf:RDF>
      <cc:Work
         rdf:about="">
        <dc:format>image/svg+xml</dc:format>
        <dc:type
           rdf:resource="http://purl.org/dc/dcmitype/StillImage" />
        <dc:title />
      </cc:Work>
    </rdf:RDF>
  </metadata>
  <g
     inkscape:label="Layer 1"
     inkscape:groupmode="layer"
     id="layer1"
     transform="translate(0,2.988066e-5)">
    <path
       sodipodi:nodetypes="ccccccccccccccccccccccccccccccccccccccccccccc"
       inkscape:connector-curvature="0"
       id="rect3119-17-8"
       d="m 144.03564,88.44846 0,53.15625 10.62886,0 0,34.375 -10.62886,0 0,107.37501 10.62886,0 0,34.375 -10.62886,0 0,107.34376 10.62886,0 0,34.375 -10.62886,0 0,53.1563 53.125,0 0,-10.6281 34.375,0 0,10.6281 71.93751,0 0,-10.6281 34.375,0 0,10.6281 53.15625,0 0,-53.1563 -10.63044,0 0,-34.375 10.63044,0 0,-107.34376 -10.63044,0 0,-34.375 10.63044,0 0,-107.37501 -10.62989,0 0,-34.375 10.62989,0 0,-53.15625 -53.15625,0 0,10.63294 -34.375,0 0,-10.63294 -71.93751,0 0,10.63294 -34.375,0 0,-10.63294 z"
       style="fill:none;stroke:#000000;stroke-width:1.0629921;stroke-miterlimit:4;stroke-dasharray:none" />
    <path
       style="fill:none;stroke:#000000;stroke-width:1.0629921;stroke-miterlimit:4"
       d="m 196.8426,7.551669 0,10.624999 -42.50001,0 0,69.781272 43.03126,0 0,10.63034 34.375,0 0,-10.63034 71.9375,0 0,10.63034 34.375,0 0,-10.63034 42,0 0,-69.781272 -42.53125,0 0,-10.624999 -34.375,0 0,10.624999 -71.9375,0 0,-10.624999 z"
       id="rect4476-7-15-2-7-6-4-8-8-2-2"
       inkscape:connector-curvature="0"
       sodipodi:nodetypes="ccccccccccccccccccccc" />
    <path
       style="fill:none;stroke:#000000;stroke-width:1.0629921;stroke-miterlimit:4"
       d="m 197.26778,501.87523 0,10.625 -42.5,0 0,69.7812 43.03125,0 0,10.6303 34.375,0 0,-10.6303 71.9375,0 0,10.6303 34.375,0 0,-10.6303 42,0 0,-69.7812 -42.53125,0 0,-10.625 -34.375,0 0,10.625 -71.9375,0 0,-10.625 z"
       id="rect4476-7-15-2-7-6-4-8-8-4"
       inkscape:connector-curvature="0"
       sodipodi:nodetypes="ccccccccccccccccccccc" />
    <path
       style="fill:none;stroke:#000000;stroke-width:1.0629921;stroke-miterlimit:4;stroke-dasharray:none"
       d="m 73.972968,88.53289 0,53.15625 -11.15625,0 0,34.3738 11.15625,0 0,107.37637 -11.1875,0 0,34.37363 11.1875,0 0,107.34451 -11.1875,0 0,34.3772 11.1875,0 0,53.1233 69.781142,0 0,-53.1233 10.63041,0 0,-34.3772 -10.63041,0 0,-107.34451 10.63041,0 0,-34.37363 -10.63041,0 0,-107.37637 10.63041,0 0,-34.37363 -10.63041,0 0,-53.15642 z"
       id="rect3119-7-4-5"
       inkscape:connector-curvature="0"
       sodipodi:nodetypes="ccccccccccccccccccccccccccccc" />
    <path
       style="fill:none;stroke:#000000;stroke-width:1.0629921;stroke-miterlimit:4;stroke-dasharray:none"
       d="m 391.34655,88.37405 0,53.15625 -11.15625,0 0,34.3738 11.15625,0 0,107.37637 -11.1875,0 0,34.37363 11.1875,0 0,107.34451 -11.1875,0 0,34.3772 11.1875,0 0,53.1233 69.78114,0 0,-53.1233 10.63041,0 0,-34.3772 -10.63041,0 0,-107.34451 10.63041,0 0,-34.37363 -10.63041,0 0,-107.37637 10.63041,0 0,-34.37363 -10.63041,0 0,-53.15642 z"
       id="rect3119-7-4-5-5"
       inkscape:connector-curvature="0"
       sodipodi:nodetypes="ccccccccccccccccccccccccccccc" />
    <path
       sodipodi:type="arc"
       style="fill:none;stroke:#000000;stroke-width:1.13084269;stroke-miterlimit:4;stroke-dasharray:none"
       id="path3013"
       sodipodi:cx="611.22046"
       sodipodi:cy="954.92126"
       sodipodi:rx="8.8582678"
       sodipodi:ry="8.8582678"
       d="m 620.07873,954.92126 c 0,4.89229 -3.96598,8.85827 -8.85827,8.85827 -4.89229,0 -8.85827,-3.96598 -8.85827,-8.85827 0,-4.89228 3.96598,-8.85826 8.85827,-8.85826 4.89229,0 8.85827,3.96598 8.85827,8.85826 z"
       transform="matrix(0.93999999,0,0,0.93999999,10.229254,-742.87358)" />
    <path
       sodipodi:type="arc"
       style="fill:none;stroke:#000000;stroke-width:1.13084269;stroke-miterlimit:4;stroke-dasharray:none"
       id="path3013-1"
       sodipodi:cx="611.22046"
       sodipodi:cy="954.92126"
       sodipodi:rx="8.8582678"
       sodipodi:ry="8.8582678"
       d="m 620.07873,954.92126 c 0,4.89229 -3.96598,8.85827 -8.85827,8.85827 -4.89229,0 -8.85827,-3.96598 -8.85827,-8.85827 0,-4.89228 3.96598,-8.85826 8.85827,-8.85826 4.89229,0 8.85827,3.96598 8.85827,8.85826 z"
       transform="matrix(0.93999999,0,0,0.93999999,10.229254,-447.00744)" />
    <rect
       style="fill:none;stroke:#000000;stroke-width:1.0629921;stroke-miterlimit:4;stroke-dasharray:none"
       id="rect3337-0-7"
       width="161.92912"
       height="239.8819"
       x="503.81189"
       y="180.72185" />
    <path
       sodipodi:nodetypes="ccccccccccccccccccccccccccccccccccccccccccccc"
       inkscape:connector-curvature="0"
       id="rect3119-17-1"
       d="m 460.98454,88.32746 0,53.15625 10.62886,0 0,34.375 -10.62886,0 0,107.37502 10.62886,0 0,34.375 -10.62886,0 0,107.34376 10.62886,0 0,34.375 -10.62886,0 0,53.1563 53.125,0 0,-10.6281 34.375,0 0,10.6281 71.93751,0 0,-10.6281 34.375,0 0,10.6281 53.15625,0 0,-53.1563 -10.63044,0 0,-34.375 10.63044,0 0,-107.34376 -10.63044,0 0,-34.375 10.63044,0 0,-107.37502 -10.62989,0 0,-34.375 10.62989,0 0,-53.15625 -53.15625,0 0,10.63294 -34.375,0 0,-10.63294 -71.93751,0 0,10.63294 -34.375,0 0,-10.63294 z"
       style="fill:none;stroke:#000000;stroke-width:1.0629921;stroke-miterlimit:4;stroke-dasharray:none" />
    <rect
       style="fill:none;stroke:#000000;stroke-width:1.27336276;stroke-miterlimit:4;stroke-dasharray:none"
       id="rect3337-0-2-7-4-5"
       width="175.892"
       height="345.9707"
       x="444.01871"
       y="655.15973" />
    <path
       sodipodi:type="arc"
       style="fill:none;stroke:#000000;stroke-width:1.13144624;stroke-miterlimit:4;stroke-dasharray:none"
       id="path3013-4-4-1-2-5"
       sodipodi:cx="611.22046"
       sodipodi:cy="954.92126"
       sodipodi:rx="8.8582678"
       sodipodi:ry="8.8582678"
       d="m 620.07873,954.92126 c 0,4.89229 -3.96598,8.85827 -8.85827,8.85827 -4.89229,0 -8.85827,-3.96598 -8.85827,-8.85827 0,-4.89228 3.96598,-8.85826 8.85827,-8.85826 4.89229,0 8.85827,3.96598 8.85827,8.85826 z"
       transform="matrix(0.938727,0,0,0.94027071,-41.804422,-219.17777)" />
    <path
       sodipodi:type="arc"
       style="fill:none;stroke:#000000;stroke-width:1.13144624;stroke-miterlimit:4;stroke-dasharray:none"
       id="path3013-1-8-5-7-3-1"
       sodipodi:cx="611.22046"
       sodipodi:cy="954.92126"
       sodipodi:rx="8.8582678"
       sodipodi:ry="8.8582678"
       d="m 620.07873,954.92126 c 0,4.89229 -3.96598,8.85827 -8.85827,8.85827 -4.89229,0 -8.85827,-3.96598 -8.85827,-8.85827 0,-4.89228 3.96598,-8.85826 8.85827,-8.85826 4.89229,0 8.85827,3.96598 8.85827,8.85826 z"
       transform="matrix(0.938727,0,0,0.94027071,-41.804422,76.77358)" />
    <text
       xml:space="preserve"
       style="font-size:14px;font-style:normal;font-weight:normal;line-height:125%;letter-spacing:0px;word-spacing:0px;fill:#000000;fill-opacity:1;stroke:none;font-family:Sans"
       x="570.75647"
       y="984.68195"
       id="text4096"
       sodipodi:linespacing="125%"><tspan
         sodipodi:role="line"
         id="tspan4098"
         x="570.75647"
         y="984.68195">기판 B</tspan></text>
    <g
       id="g3180"
       transform="translate(27.574936,-39.432564)">
      <rect
         y="821.81506"
         x="425.1853"
         height="91.525162"
         width="158.40894"
         id="rect3400-3"
         style="fill:none;stroke:#000000;stroke-width:1.06299198;stroke-miterlimit:4;stroke-dasharray:none" />
      <text
         transform="scale(1.3453552,0.74329811)"
         sodipodi:linespacing="125%"
         id="text3402-2"
         y="1135.8229"
         x="328.0932"
         style="font-size:12.16669083px;font-style:normal;font-weight:normal;line-height:125%;letter-spacing:0px;word-spacing:0px;fill:#000000;fill-opacity:1;stroke:none;font-family:Sans"
         xml:space="preserve"><tspan
           y="1135.8229"
           x="328.0932"
           id="tspan3404-2"
           sodipodi:role="line">Relay</tspan><tspan
           id="tspan3168"
           y="1151.0313"
           x="328.0932"
           sodipodi:role="line">1 Ch</tspan></text>
    </g>
    <g
       transform="matrix(0,1,-1.6901409,0,1763.206,585.4758)"
       id="g3052">
      <rect
         y="882.94513"
         x="177.16536"
         height="49.31496"
         width="121.24409"
         id="rect3108"
         style="fill:none;stroke:#000000;stroke-width:0.76919866px;stroke-linecap:butt;stroke-linejoin:miter;stroke-opacity:1" />
      <text
         transform="scale(1.1267231,0.88752951)"
         sodipodi:linespacing="125%"
         id="text3184-5-17"
         y="1026.0277"
         x="177.30817"
         style="font-size:14.83170414px;font-style:normal;font-weight:normal;line-height:125%;letter-spacing:0px;word-spacing:0px;fill:#000000;fill-opacity:1;stroke:none;font-family:Sans"
         xml:space="preserve"><tspan
           y="1026.0277"
           x="177.30817"
           id="tspan3186-7-4"
           sodipodi:role="line">GMS0205</tspan></text>
    </g>
    <g
       id="g3176-2-48"
       transform="matrix(0.98415198,0,0,0.98916567,103.53003,432.34801)">
      <rect
         y="343.23434"
         x="178.09779"
         height="111.96851"
         width="65.90551"
         id="rect3168-3-8"
         style="fill:none;stroke:#000000;stroke-width:1.07736897;stroke-miterlimit:4;stroke-dasharray:none" />
      <text
         transform="matrix(0,1,-1,0,0,0)"
         sodipodi:linespacing="125%"
         id="text3170-2-2"
         y="-212.59842"
         x="361.4173"
         style="font-size:16px;font-style:normal;font-weight:normal;line-height:125%;letter-spacing:0px;word-spacing:0px;fill:#000000;fill-opacity:1;stroke:none;font-family:Sans"
         xml:space="preserve"><tspan
           y="-212.59842"
           x="361.4173"
           id="tspan3172-2-4"
           sodipodi:role="line">ProBee</tspan><tspan
           id="tspan3174-1-5"
           y="-192.59842"
           x="361.4173"
           sodipodi:role="line">ZE20SSC</tspan></text>
    </g>
    <rect
       style="fill:none;stroke:#000000;stroke-width:1.27336276;stroke-miterlimit:4;stroke-dasharray:none"
       id="rect3337-0-2-7-4"
       width="175.892"
       height="345.9707"
       x="178.15837"
       y="653.62903" />
    <path
       sodipodi:type="arc"
       style="fill:none;stroke:#000000;stroke-width:1.13144624;stroke-miterlimit:4;stroke-dasharray:none"
       id="path3013-4-4-1-2"
       sodipodi:cx="611.22046"
       sodipodi:cy="954.92126"
       sodipodi:rx="8.8582678"
       sodipodi:ry="8.8582678"
       d="m 620.07873,954.92126 a 8.8582678,8.8582678 0 1 1 -17.71654,0 8.8582678,8.8582678 0 1 1 17.71654,0 z"
       transform="matrix(0.938727,0,0,0.94027071,-307.66477,-220.70848)" />
    <path
       sodipodi:type="arc"
       style="fill:none;stroke:#000000;stroke-width:1.13144624;stroke-miterlimit:4;stroke-dasharray:none"
       id="path3013-1-8-5-7-3"
       sodipodi:cx="611.22046"
       sodipodi:cy="954.92126"
       sodipodi:rx="8.8582678"
       sodipodi:ry="8.8582678"
       d="m 620.07873,954.92126 a 8.8582678,8.8582678 0 1 1 -17.71654,0 8.8582678,8.8582678 0 1 1 17.71654,0 z"
       transform="matrix(0.938727,0,0,0.94027071,-307.66477,75.242867)" />
    <rect
       style="fill:none;stroke:#000000;stroke-width:1.0629921;stroke-miterlimit:4;stroke-dasharray:none"
       id="rect3767-7"
       width="88.937004"
       height="74.055122"
       x="221.63586"
       y="687.07227" />
    <path
       sodipodi:type="arc"
       style="fill:none;stroke:#000000;stroke-width:1.96812975;stroke-miterlimit:4;stroke-dasharray:none"
       id="path3805-1"
       sodipodi:cx="-292.32285"
       sodipodi:cy="-37.204746"
       sodipodi:rx="8.8582678"
       sodipodi:ry="8.8582678"
       d="m -283.46458,-37.204746 a 8.8582678,8.8582678 0 1 1 -17.71653,0 8.8582678,8.8582678 0 1 1 17.71653,0 z"
       transform="matrix(0.54012971,0,0,0.54007565,480.94008,744.1932)" />
    <g
       id="g3063"
       transform="matrix(0,1,-1,0,347.23884,804.27566)">
      <rect
         y="120.3494"
         x="88.58268"
         height="32.952755"
         width="84.330704"
         id="rect3047"
         style="fill:none;stroke:#000000;stroke-width:0.70866138;stroke-miterlimit:4;stroke-opacity:1;stroke-dasharray:none" />
      <text
         sodipodi:linespacing="125%"
         id="text3059"
         y="142.54759"
         x="94.600975"
         style="font-size:14px;font-style:normal;font-weight:normal;line-height:125%;letter-spacing:0px;word-spacing:0px;fill:#000000;fill-opacity:1;stroke:none;font-family:Sans"
         xml:space="preserve"><tspan
           y="142.54759"
           x="94.600975"
           id="tspan3061"
           sodipodi:role="line">Fuse Holder</tspan></text>
    </g>
    <text
       xml:space="preserve"
       style="font-size:14px;font-style:normal;font-weight:normal;line-height:125%;letter-spacing:0px;word-spacing:0px;fill:#000000;fill-opacity:1;stroke:none;font-family:Sans"
       x="302.03561"
       y="984.68195"
       id="text4088"
       sodipodi:linespacing="125%"><tspan
         sodipodi:role="line"
         x="302.03561"
         y="984.68195"
         id="tspan4092">기판 T</tspan></text>
    <path
       sodipodi:type="arc"
       style="fill:none;stroke:#000000;stroke-width:0.80938488;stroke-miterlimit:4;stroke-dasharray:none"
       id="path3087"
       sodipodi:cx="-380.90552"
       sodipodi:cy="1008.0709"
       sodipodi:rx="26.574802"
       sodipodi:ry="26.574802"
       d="m -354.33072,1008.0709 a 26.574802,26.574802 0 1 1 -53.1496,0 26.574802,26.574802 0 1 1 53.1496,0 z"
       transform="matrix(1.3133334,0,0,1.3133334,766.36031,-400.96456)" />
    <path
       sodipodi:type="arc"
       style="fill:none;stroke:#000000;stroke-width:1.13084269;stroke-miterlimit:4;stroke-dasharray:none"
       id="path3089"
       sodipodi:cx="-221.4567"
       sodipodi:cy="458.85825"
       sodipodi:rx="8.8582678"
       sodipodi:ry="8.8582678"
       d="m -212.59843,458.85825 a 8.8582678,8.8582678 0 1 1 -17.71653,0 8.8582678,8.8582678 0 1 1 17.71653,0 z"
       transform="matrix(0.93999999,0,0,0.93999999,474.27366,491.64191)" />
    <rect
       style="fill:none;stroke:#000000;stroke-width:1.0629921;stroke-miterlimit:4;stroke-dasharray:none"
       id="rect3767-7-6"
       width="88.937004"
       height="74.055122"
       x="223.15865"
       y="164.54549" />
    <path
       sodipodi:type="arc"
       style="fill:none;stroke:#000000;stroke-width:1.96812975;stroke-miterlimit:4;stroke-dasharray:none"
       id="path3805-1-1"
       sodipodi:cx="-292.32285"
       sodipodi:cy="-37.204746"
       sodipodi:rx="8.8582678"
       sodipodi:ry="8.8582678"
       d="m -283.46458,-37.204746 a 8.8582678,8.8582678 0 1 1 -17.71653,0 8.8582678,8.8582678 0 1 1 17.71653,0 z"
       transform="matrix(0.54012971,0,0,0.54007565,482.35573,221.66643)" />
    <path
       sodipodi:type="arc"
       style="fill:none;stroke:#000000;stroke-width:1.13084269;stroke-miterlimit:4;stroke-dasharray:none"
       id="path3089-8"
       sodipodi:cx="-221.4567"
       sodipodi:cy="458.85825"
       sodipodi:rx="8.8582678"
       sodipodi:ry="8.8582678"
       d="m -212.59843,458.85825 c 0,4.89228 -3.96598,8.85826 -8.85827,8.85826 -4.89228,0 -8.85826,-3.96598 -8.85826,-8.85826 0,-4.89229 3.96598,-8.85827 8.85826,-8.85827 4.89229,0 8.85827,3.96598 8.85827,8.85827 z"
       transform="matrix(0.93999999,0,0,0.93999999,475.68931,-30.88481)" />
  </g>
</svg>
