<?xml version="1.0" encoding="UTF-8" standalone="no"?>
<!-- Created with Inkscape (http://www.inkscape.org/) -->

<svg
   xmlns:dc="http://purl.org/dc/elements/1.1/"
   xmlns:cc="http://creativecommons.org/ns#"
   xmlns:rdf="http://www.w3.org/1999/02/22-rdf-syntax-ns#"
   xmlns:svg="http://www.w3.org/2000/svg"
   xmlns="http://www.w3.org/2000/svg"
   xmlns:sodipodi="http://sodipodi.sourceforge.net/DTD/sodipodi-0.dtd"
   xmlns:inkscape="http://www.inkscape.org/namespaces/inkscape"
   width="1052.3622"
   height="744.09448"
   id="svg4451"
   version="1.1"
   inkscape:version="0.48.5 r10040"
   sodipodi:docname="main-box.svg">
  <defs
     id="defs3" />
  <sodipodi:namedview
     inkscape:document-units="mm"
     id="base"
     pagecolor="#ffffff"
     bordercolor="#666666"
     borderopacity="1.0"
     inkscape:pageopacity="0.0"
     inkscape:pageshadow="2"
     inkscape:zoom="0.98994949"
     inkscape:cx="463.20323"
     inkscape:cy="279.18643"
     inkscape:current-layer="layer1"
     showgrid="true"
     units="mm"
     inkscape:window-width="1375"
     inkscape:window-height="1038"
     inkscape:window-x="2145"
     inkscape:window-y="225"
     inkscape:window-maximized="0">
    <inkscape:grid
       type="xygrid"
       id="grid4474"
       empspacing="5"
       visible="true"
       enabled="true"
       snapvisiblegridlinesonly="true"
       units="mm"
       spacingx="5mm"
       spacingy="5mm" />
  </sodipodi:namedview>
  <metadata
     id="metadata4">
    <rdf:RDF>
      <cc:Work
         rdf:about="">
        <dc:format>image/svg+xml</dc:format>
        <dc:type
           rdf:resource="http://purl.org/dc/dcmitype/StillImage" />
        <dc:title />
      </cc:Work>
    </rdf:RDF>
  </metadata>
  <g
     inkscape:label="Layer 1"
     inkscape:groupmode="layer"
     id="layer1"
     transform="translate(0,-308.26767)">
    <path
       sodipodi:nodetypes="ccccccccccccccccccccccccccccccccccccccccccccc"
       inkscape:connector-curvature="0"
       id="rect3119-17-8"
       d="m 159.44882,414.56688 0,66.4751 10.62992,0 0,42.98801 -10.62992,0 0,134.27892 10.62992,0 0,42.98801 -10.62992,0 0,134.23985 10.62992,0 0,42.98801 -10.62992,0 0,66.47516 75.99078,0 0,-10.62991 49.1705,0 0,10.62991 102.90046,0 0,-10.62991 49.17051,0 0,10.62991 76.03547,0 0,-66.47516 -10.63032,0 0,-42.98801 10.63032,0 0,-134.23985 -10.63032,0 0,-42.98801 10.63032,0 0,-134.27892 -10.62954,0 0,-42.98801 10.62954,0 0,-66.4751 -76.03583,0 0,10.62993 -49.17047,0 0,-10.62993 -102.90119,0 0,10.62993 -49.16945,0 -0.001,-10.62993 z"
       style="fill:none;stroke:#000000;stroke-width:1.0629921;stroke-miterlimit:4;stroke-dasharray:none" />
    <path
       style="fill:none;stroke:#000000;stroke-width:1.0629921;stroke-miterlimit:4"
       d="m 235.05861,425.17356 0,-10.625 -64.8125,0 0,-69.78125 64.8125,0 0,-10.625 49.1875,0 0,10.625 102.875,0 0,-10.625 49.1875,0 0,10.625 65.9375,0 0,69.78125 -65.9375,0 0,10.625 -49.1875,0 0,-10.625 -33.6875,0 0,-9.46875 -34.375,0 0,9.46875 -34.8125,0 0,10.625 -49.1875,0 z"
       id="rect4476-7-15-2-7-6-4-8-8-2-2"
       inkscape:connector-curvature="0" />
    <path
       style="fill:none;stroke:#000000;stroke-width:1.0629921;stroke-miterlimit:4;stroke-dasharray:none"
       d="m 89.592829,414.56688 0,66.48 -11.15625,0 0,42.98968 11.15625,0 0,134.29052 -11.1875,0 0,42.98947 11.1875,0 0,134.25068 -11.1875,0 0,42.99393 11.1875,0 0,66.43879 69.781141,0 0,-66.43879 10.63041,0 0,-42.99393 -10.63041,0 0,-134.25068 10.63041,0 0,-42.98947 -10.63041,0 0,-134.29052 10.63041,0 0,-42.98947 -10.63041,0 0,-66.48021 z"
       id="rect3119-7-4-5"
       inkscape:connector-curvature="0"
       sodipodi:nodetypes="ccccccccccccccccccccccccccccc" />
    <path
       style="fill:none;stroke:#000000;stroke-width:1.0629921;stroke-miterlimit:4;stroke-dasharray:none"
       d="m 512.92149,414.50128 0,66.48 -11.15625,0 0,42.98968 11.15625,0 0,134.29052 -11.1875,0 0,42.98947 11.1875,0 0,134.25068 -11.1875,0 0,42.99393 11.1875,0 0,66.43879 69.78114,0 0,-66.43879 10.63041,0 0,-42.99393 -10.63041,0 0,-134.25068 10.63041,0 0,-42.98947 -10.63041,0 0,-134.29052 10.63041,0 0,-42.98947 -10.63041,0 0,-66.48021 z"
       id="rect3119-7-4-5-1"
       inkscape:connector-curvature="0"
       sodipodi:nodetypes="ccccccccccccccccccccccccccccc" />
    <path
       style="fill:none;stroke:#000000;stroke-width:1.0629921;stroke-miterlimit:4"
       d="m 235.26627,934.74744 0,10.625 -64.82834,0 0,69.78096 64.82834,0 0,10.6303 49.17047,0 0,-10.6303 102.90119,0 0,10.6303 49.17047,0 0,-10.6303 65.9374,0 0,-69.78096 -65.9374,8.2e-4 0,-10.625 -49.17047,-8.2e-4 0,10.625 -102.90119,0 0,-10.625 z"
       id="rect4476-7-15-2-7-6-4-8-8-2-2-7"
       inkscape:connector-curvature="0"
       sodipodi:nodetypes="ccccccccccccccccccccc" />
    <path
       sodipodi:nodetypes="ccccccccccccccccccccccccccccccccccccccccccccc"
       inkscape:connector-curvature="0"
       id="rect3119-17-8-4"
       d="m 582.53869,414.5706 0,66.4751 10.62992,0 0,42.98801 -10.62992,0 0,134.27892 10.62992,0 0,42.98801 -10.62992,0 0,134.23985 10.62992,0 0,42.98802 -10.62992,0 0,66.4752 75.99078,0 0,-10.63 49.1705,0 0,10.63 102.90046,0 0,-10.63 49.17051,0 0,10.63 76.03542,0 0,-66.4752 -10.6303,0 0,-42.98802 10.6303,0 0,-134.23985 -10.6303,0 0,-42.98801 10.6303,0 0,-134.27892 -10.6295,0 0,-42.98801 10.6295,0 0,-66.4751 -76.03578,0 0,10.62993 -49.17047,0 0,-10.62993 -102.90119,0 0,10.62993 -49.16945,0 -10e-4,-10.62993 z"
       style="fill:none;stroke:#000000;stroke-width:1.0629921;stroke-miterlimit:4;stroke-dasharray:none" />
    <rect
       style="fill:none;stroke:#000000;stroke-width:1.0629921;stroke-miterlimit:4;stroke-dasharray:none"
       id="rect3086"
       width="69.803146"
       height="144.2126"
       x="724.27094"
       y="723.43695" />
    <rect
       style="fill:none;stroke:#000000;stroke-width:1.06299213;stroke-miterlimit:4;stroke-dasharray:1.06299213,4.2519685;stroke-dashoffset:0"
       id="rect3086-0"
       width="69.803146"
       height="195.59055"
       x="724.27094"
       y="697.74799" />
    <path
       sodipodi:type="arc"
       style="fill:none;stroke:#000000;stroke-width:3.12644768;stroke-miterlimit:4;stroke-dasharray:none"
       id="path3088-9"
       sodipodi:cx="983.2677"
       sodipodi:cy="451.77164"
       sodipodi:rx="8.8582678"
       sodipodi:ry="8.8582678"
       d="m 992.12597,451.77164 c 0,4.89228 -3.96598,8.85826 -8.85827,8.85826 -4.89229,0 -8.85827,-3.96598 -8.85827,-8.85826 0,-4.89229 3.96598,-8.85827 8.85827,-8.85827 4.89229,0 8.85827,3.96598 8.85827,8.85827 z"
       transform="matrix(0.34,0,0,0.33999999,407.14496,731.31098)" />
    <path
       sodipodi:type="arc"
       style="fill:none;stroke:#000000;stroke-width:3.12644768;stroke-miterlimit:4;stroke-dasharray:none"
       id="path3088-9-4"
       sodipodi:cx="983.2677"
       sodipodi:cy="451.77164"
       sodipodi:rx="8.8582678"
       sodipodi:ry="8.8582678"
       d="m 992.12597,451.77164 c 0,4.89228 -3.96598,8.85826 -8.85827,8.85826 -4.89229,0 -8.85827,-3.96598 -8.85827,-8.85826 0,-4.89229 3.96598,-8.85827 8.85827,-8.85827 4.89229,0 8.85827,3.96598 8.85827,8.85827 z"
       transform="matrix(0.34,0,0,0.33999999,442.57803,731.31098)" />
    <path
       sodipodi:type="arc"
       style="fill:none;stroke:#000000;stroke-width:3.12644768;stroke-miterlimit:4;stroke-dasharray:none"
       id="path3088-9-8"
       sodipodi:cx="983.2677"
       sodipodi:cy="451.77164"
       sodipodi:rx="8.8582678"
       sodipodi:ry="8.8582678"
       d="m 992.12597,451.77164 c 0,4.89228 -3.96598,8.85826 -8.85827,8.85826 -4.89229,0 -8.85827,-3.96598 -8.85827,-8.85826 0,-4.89229 3.96598,-8.85827 8.85827,-8.85827 4.89229,0 8.85827,3.96598 8.85827,8.85827 z"
       transform="matrix(0.34,0,0,0.33999999,407.14496,554.14562)" />
    <path
       sodipodi:type="arc"
       style="fill:none;stroke:#000000;stroke-width:3.12644768;stroke-miterlimit:4;stroke-dasharray:none"
       id="path3088-9-4-2"
       sodipodi:cx="983.2677"
       sodipodi:cy="451.77164"
       sodipodi:rx="8.8582678"
       sodipodi:ry="8.8582678"
       d="m 992.12597,451.77164 c 0,4.89228 -3.96598,8.85826 -8.85827,8.85826 -4.89229,0 -8.85827,-3.96598 -8.85827,-8.85826 0,-4.89229 3.96598,-8.85827 8.85827,-8.85827 4.89229,0 8.85827,3.96598 8.85827,8.85827 z"
       transform="matrix(0.34,0,0,0.33999999,442.57803,554.14562)" />
  </g>
</svg>
